<svg width="46" height="32" fill="none" xmlns="http://www.w3.org/2000/svg">
  <path fill-rule="evenodd" clip-rule="evenodd" d="M45.043 6.902s-.446-3.135-1.809-4.515C41.504.574 39.564.567 38.674.46 32.31 0 22.759 0 22.759 0h-.019S13.19 0 6.823.46c-.891.105-2.829.114-4.561 1.927C.899 3.767.455 6.902.455 6.902S0 10.586 0 14.265v3.454c0 3.682.455 7.363.455 7.363s.444 3.134 1.807 4.516c1.732 1.812 4.005 1.756 5.018 1.945 3.64.349 15.469.457 15.469.457s9.56-.013 15.926-.474c.89-.106 2.828-.116 4.56-1.928 1.364-1.382 1.808-4.515 1.808-4.515s.455-3.682.455-7.365v-3.45c0-3.682-.455-7.366-.455-7.366z" fill="#4392F1"/>
  <circle cx="22.748" cy="16" r="6.157" fill="#fff"/>
</svg>
