<?xml version="1.0" standalone="no"?>
<!DOCTYPE svg PUBLIC "-//W3C//DTD SVG 20010904//EN"
 "http://www.w3.org/TR/2001/REC-SVG-20010904/DTD/svg10.dtd">
<svg version="1.0" xmlns="http://www.w3.org/2000/svg"
 width="736.000000pt" height="736.000000pt" viewBox="0 0 736.000000 736.000000"
 preserveAspectRatio="xMidYMid meet">
<metadata>
Created by potrace 1.11, written by Peter Selinger 2001-2013
</metadata>
<g transform="translate(0.000000,736.000000) scale(0.100000,-0.100000)"
fill="#000000" stroke="none">
<path d="M2788 6235 c-2 -2 -131 -6 -288 -10 -781 -17 -1383 -47 -1585 -79
-144 -22 -285 -78 -404 -159 -67 -46 -176 -153 -215 -211 -89 -135 -180 -381
-211 -575 -3 -19 -8 -37 -10 -41 -2 -3 -6 -40 -10 -80 -3 -41 -7 -93 -10 -115
-7 -58 -14 -139 -21 -230 -3 -44 -7 -98 -9 -120 -16 -182 -20 -397 -20 -950 0
-352 4 -687 8 -745 18 -268 25 -357 32 -415 2 -22 7 -71 10 -110 13 -151 14
-155 40 -280 43 -210 114 -399 199 -525 43 -66 148 -165 224 -214 60 -37 175
-94 206 -101 6 -1 18 -4 26 -7 32 -12 105 -30 133 -34 16 -2 36 -5 46 -8 9 -3
41 -8 71 -11 69 -7 120 -14 148 -20 11 -2 63 -6 114 -9 51 -4 127 -8 168 -11
123 -9 508 -23 820 -30 107 -2 195 -5 195 -5 0 -6 720 -14 1265 -14 690 0
1251 10 1715 29 564 24 731 35 925 60 123 15 364 106 401 151 6 8 16 14 20 14
12 0 71 51 142 124 64 66 122 156 162 256 15 36 31 74 35 85 21 51 73 242 84
310 2 11 6 34 9 50 3 17 8 57 11 90 4 33 9 80 11 105 3 25 7 70 10 100 2 30 6
80 9 110 6 61 16 202 21 295 2 33 6 157 9 276 3 119 6 221 7 225 1 5 1 11 0
14 -4 14 -5 200 -1 200 6 0 3 108 -4 126 -3 8 -2 14 3 14 5 0 5 17 2 38 -4 20
-4 48 -1 62 3 13 3 45 0 70 -3 25 -3 62 1 82 3 21 4 40 1 43 -3 3 -6 70 -8
149 -3 190 -19 445 -39 651 -3 28 -7 73 -10 100 -2 28 -7 77 -10 110 -4 33 -8
71 -11 85 -2 14 -7 39 -9 55 -7 51 -53 221 -84 309 -40 115 -105 238 -164 309
-49 59 -175 168 -225 195 -111 60 -238 110 -295 116 -12 2 -35 6 -52 9 -16 3
-55 9 -85 12 -30 3 -71 8 -90 10 -19 3 -78 7 -130 10 -52 3 -129 7 -170 10
-158 10 -351 18 -730 30 -118 4 -273 9 -345 11 -150 5 -2033 13 -2037 9z"/>
</g>
</svg>
